<svg xmlns="http://www.w3.org/2000/svg" viewBox="0 0 400 420" width="400" height="420">
  <rect width="400" height="420" fill="#F2F2F2"/>
  <!-- Shadow -->
  <path d="M 118 72 L 60 95 L 28 170 L 82 188 L 88 170 L 88 370 L 312 370 L 312 170 L 318 188 L 372 170 L 340 95 L 282 72 C 268 108 236 122 200 122 C 164 122 132 108 118 72 Z" fill="rgba(0,0,0,0.12)" transform="translate(4,4)"/>
  <!-- T-shirt body -->
  <path d="M 118 72 L 60 95 L 28 170 L 82 188 L 88 170 L 88 370 L 312 370 L 312 170 L 318 188 L 372 170 L 340 95 L 282 72 C 268 108 236 122 200 122 C 164 122 132 108 118 72 Z" fill="#2D2D2D" stroke="#111111" stroke-width="2"/>
  <!-- Collar -->
  <path d="M 118 72 Q 200 138 282 72" fill="none" stroke="#111111" stroke-width="2"/>
  <!-- Subtle highlight seam -->
  <path d="M 88 170 L 88 370" stroke="#3D3D3D" stroke-width="1" opacity="0.5"/>
  <path d="M 312 170 L 312 370" stroke="#3D3D3D" stroke-width="1" opacity="0.5"/>
  <!-- Print area indicator -->
  <rect x="148" y="185" width="104" height="100" rx="4" fill="none" stroke="#888888" stroke-width="1" stroke-dasharray="4 3" opacity="0.6"/>
  <text x="200" y="240" text-anchor="middle" font-family="sans-serif" font-size="10" fill="#888888" opacity="0.8">Print Area</text>
  <!-- Premium badge -->
  <rect x="155" y="310" width="90" height="24" rx="12" fill="#444444"/>
  <text x="200" y="326" text-anchor="middle" font-family="sans-serif" font-size="9" font-weight="700" fill="#CCCCCC" letter-spacing="1">PREMIUM</text>
  <!-- Product label -->
  <text x="200" y="400" text-anchor="middle" font-family="sans-serif" font-size="13" font-weight="600" fill="#333333" letter-spacing="0.5">Premium Unisex T-Shirt</text>
</svg>
